<svg width="400" height="370" viewBox="0 0 400 370" fill="none" xmlns="http://www.w3.org/2000/svg">
<g opacity="0.5" clip-path="url(#clip0_319_155)">
<path d="M364.419 296.149L331.949 247.918C331.949 247.918 381.123 265.085 375.542 296.149H364.419Z" fill="#E5E5E5"/>
<path d="M27.8352 296.469L26.6025 296.445C27.0793 282.739 28.5416 269.086 30.9783 255.59C36.3086 226.696 45.172 207.72 57.3223 199.188L58.0301 200.197C29.6469 220.126 27.8496 295.708 27.8352 296.469Z" fill="#E5E5E5"/>
<path d="M43.2434 296.174L42.0107 296.15C42.0372 294.785 42.8077 262.613 55.4732 253.721L56.181 254.729C44.0265 263.263 43.2494 295.846 43.2434 296.174Z" fill="#E5E5E5"/>
<path d="M65.0427 200.309C68.4466 200.309 71.2061 197.55 71.2061 194.146C71.2061 190.742 68.4466 187.982 65.0427 187.982C61.6388 187.982 58.8794 190.742 58.8794 194.146C58.8794 197.55 61.6388 200.309 65.0427 200.309Z" fill="#007DD5"/>
<path d="M61.9905 253.314C65.3944 253.314 68.1538 250.554 68.1538 247.15C68.1538 243.747 65.3944 240.987 61.9905 240.987C58.5866 240.987 55.8271 243.747 55.8271 247.15C55.8271 250.554 58.5866 253.314 61.9905 253.314Z" fill="#007DD5"/>
<path d="M40.3705 204.004C41.5288 211.402 38.5099 218.02 38.5099 218.02C38.5099 218.02 33.6129 212.642 32.4546 205.243C31.2963 197.845 34.3152 191.227 34.3152 191.227C34.3152 191.227 39.2122 196.605 40.3705 204.004Z" fill="#E5E5E5"/>
<path d="M60.5167 221.972C53.4332 224.402 46.3911 222.582 46.3911 222.582C46.3911 222.582 50.8336 216.823 57.9171 214.393C65.0006 211.964 72.0427 213.783 72.0427 213.783C72.0427 213.783 67.6002 219.543 60.5167 221.972Z" fill="#E5E5E5"/>
<path d="M60.7442 268.913C57.5382 269.92 54.1241 270.067 50.8433 269.34C52.9264 266.688 55.732 264.695 58.922 263.601C62.1121 262.506 65.5505 262.358 68.8229 263.173C66.679 265.761 63.8932 267.74 60.7442 268.913Z" fill="#E5E5E5"/>
<path d="M399.384 297.382H0.616333C0.452871 297.382 0.296113 297.317 0.180529 297.201C0.0649438 297.086 0 296.929 0 296.765C0 296.602 0.0649438 296.445 0.180529 296.33C0.296113 296.214 0.452871 296.149 0.616333 296.149H399.384C399.547 296.149 399.704 296.214 399.819 296.33C399.935 296.445 400 296.602 400 296.765C400 296.929 399.935 297.086 399.819 297.201C399.704 297.317 399.547 297.382 399.384 297.382Z" fill="#CBCBCB"/>
<path d="M252.568 325.795L247.526 338.918L194.507 325.715L201.948 306.345L252.568 325.795Z" fill="#FFB7B7"/>
<path d="M266.575 327.335L250.317 369.651L249.782 369.446C245.414 367.767 241.891 364.422 239.989 360.147C238.087 355.871 237.961 351.015 239.639 346.647L239.639 346.646L249.569 320.801L266.575 327.335Z" fill="#2F2E41"/>
<path d="M172.003 161.474L148.898 163.637L147.751 232.385C148.058 235.754 149.671 238.869 152.246 241.063C154.821 243.257 158.153 244.356 161.528 244.123L176.178 243.114L172.003 161.474Z" fill="#E5E5E5"/>
<path d="M253.459 158.091L237.65 157.887L236.713 239.573C240.207 239.69 243.687 239.085 246.936 237.797C250.186 236.509 253.135 234.566 255.6 232.087C258.065 229.609 259.993 226.649 261.264 223.393C262.535 220.137 263.121 216.654 262.986 213.161L253.459 158.091Z" fill="#E5E5E5"/>
<path d="M161.726 268.592C161.352 270.962 160.808 273.301 160.1 275.593C159.302 277.836 158.071 279.911 157.341 282.177C155.016 289.402 158.239 297.456 163.387 303.033C167.852 307.849 173.614 311.271 179.98 312.885C184.624 314.053 189.453 314.221 194.239 314.384C207.492 314.833 221.086 315.235 233.643 310.976C237.611 309.597 241.443 307.856 245.092 305.775C246.244 305.226 247.258 304.427 248.062 303.436C249.02 302.073 249.142 300.304 249.134 298.638C249.106 293.02 247.967 287.43 248.237 281.818C248.387 278.71 248.969 275.604 248.682 272.505C248.286 268.986 246.812 265.675 244.461 263.026C242.111 260.377 238.999 258.519 235.552 257.706C231.99 256.941 228.295 257.358 224.668 257.706C215.254 258.611 205.799 259.034 196.342 258.973C186.678 258.911 177.075 257.436 167.46 257.282C164.616 257.237 164.674 258.113 163.769 260.865C162.935 263.398 162.253 265.978 161.726 268.592Z" fill="#2F2E41"/>
<path d="M123.94 264.026C121.341 263.373 118.664 263.089 115.986 263.181C113.173 263.336 110.425 264.089 107.925 265.389C105.425 266.689 103.23 268.506 101.487 270.719C99.7433 272.933 98.4912 275.493 97.8135 278.228C97.1359 280.963 97.0483 283.811 97.5566 286.582C98.2054 289.584 99.266 292.482 100.708 295.194C102.818 299.475 105.347 303.746 109.252 306.489C111.536 308.093 114.18 309.094 116.793 310.078L137.359 317.826C140.384 318.965 143.41 320.105 146.466 321.162C161.816 326.468 177.82 329.65 194.033 330.619C198.971 330.913 203.984 330.994 208.802 329.87C209.945 329.603 211.164 329.206 211.826 328.236C212.218 327.553 212.449 326.79 212.502 326.004L213.768 317.144C213.946 315.897 214.117 314.584 213.66 313.41C213.08 311.921 211.627 310.984 210.242 310.188C196.721 302.422 180.933 298.138 169.553 287.48C166.874 284.971 164.632 280.994 161.376 279.289C157.685 277.356 153.338 276.253 149.522 274.472C141.181 270.579 132.98 266.104 123.94 264.026Z" fill="#2F2E41"/>
<path opacity="0.1" d="M144.472 275.97C151.741 278.248 182.432 294.029 187.693 299.539C186.988 299.793 163.064 286.385 162.346 286.17C155.82 284.211 149.258 282.24 143.062 279.374C141.815 278.798 134.963 276.087 135.273 274.515C135.623 272.74 143.181 275.566 144.472 275.97Z" fill="black"/>
<path d="M188.343 138.368L168.771 153.229C168.771 153.229 148.118 153.875 148.816 167.077C149.514 180.279 157.78 242.785 157.78 242.785L159.573 264.293L193.59 273.985C211.97 279.222 231.389 279.639 249.976 275.194L245.934 253.617C245.934 253.617 262.303 155.625 252.442 151.311C242.58 146.997 236.417 148.229 236.417 148.229L224.056 137.443L188.343 138.368Z" fill="#E5E5E5"/>
<path d="M246.278 114.364C246.278 133.656 228.44 130.738 206.435 130.738C184.43 130.738 166.592 133.656 166.592 114.364C166.592 95.0719 175.305 60.8756 206.435 60.8756C238.637 60.8756 246.278 95.0719 246.278 114.364Z" fill="#2F2E41"/>
<path d="M227.147 120.902C237.617 110.431 237.617 93.4559 227.147 82.9856C216.676 72.5154 199.701 72.5154 189.231 82.9856C178.76 93.4559 178.76 110.431 189.23 120.902C199.701 131.372 216.676 131.372 227.147 120.902Z" fill="#FFB7B7"/>
<path d="M175.325 101.265H185.929L190.607 88.1655L191.542 101.265H196.611L199.34 93.6235L199.886 101.265H237.546C237.546 93.7374 234.556 86.5185 229.233 81.1959C223.91 75.8734 216.691 72.8832 209.164 72.8832H203.706C196.179 72.8832 188.96 75.8734 183.637 81.1959C178.315 86.5185 175.325 93.7374 175.325 101.265Z" fill="#2F2E41"/>
<path d="M233.335 141.449H179.714V206.164H233.335V141.449Z" fill="#007DD5"/>
<path d="M182.669 325.178L187.712 338.302L240.732 325.098L233.289 305.729L182.669 325.178Z" fill="#FFB7B7"/>
<path d="M185.668 320.184L195.598 346.03L195.599 346.031C197.277 350.399 197.151 355.255 195.249 359.531C193.346 363.806 189.824 367.151 185.456 368.829L184.921 369.035L168.662 326.718L185.668 320.184Z" fill="#2F2E41"/>
<path d="M288.65 259.003C292.909 257.935 297.325 257.633 301.69 258.112C305.176 258.496 308.768 259.466 311.313 261.879C314.411 264.816 315.406 269.358 315.489 273.625C315.625 282.126 312.806 290.41 307.513 297.063C306.22 298.745 304.683 300.225 302.952 301.453C301.085 302.621 299.096 303.579 297.019 304.312L250.962 322.478C238.845 327.257 226.686 332.05 214.047 335.201C213.36 335.533 212.569 335.578 211.849 335.327C211.129 335.075 210.538 334.548 210.206 333.861C210.196 333.84 210.186 333.819 210.176 333.798C206.141 328.033 202.755 321.841 200.082 315.332C199.955 315.178 199.868 314.995 199.827 314.799C199.786 314.603 199.793 314.401 199.846 314.208C199.9 314.016 200 313.839 200.137 313.693C200.273 313.547 200.443 313.437 200.632 313.37L233.208 294.653C235.542 293.312 237.901 291.952 239.839 290.084C241.247 288.72 242.399 287.115 243.243 285.345C243.918 283.935 243.981 280.606 244.844 279.564C245.688 278.543 248.577 278.462 249.911 278.06C251.793 277.484 253.636 276.787 255.428 275.975C262.715 272.715 269.204 267.978 276.19 264.161C280.108 261.921 284.295 260.187 288.65 259.003Z" fill="#2F2E41"/>
<path opacity="0.1" d="M270.182 272.981C264.585 277.185 257.338 281.049 251.791 285.363C249.898 286.835 218.339 304.578 217.893 306.935C223.068 307.807 256.034 284.745 260.75 282.444C265.467 280.142 269.648 276.897 273.791 273.676C274.847 272.855 279.321 270.387 276.29 269.47C274.583 268.954 271.443 272.141 270.182 272.981Z" fill="black"/>
<path d="M370.778 110.764C381.414 110.764 390.037 102.142 390.037 91.5053C390.037 80.8688 381.414 72.2462 370.778 72.2462C360.141 72.2462 351.519 80.8688 351.519 91.5053C351.519 102.142 360.141 110.764 370.778 110.764Z" fill="#F1F1F1"/>
<path d="M335.134 114.214C342.596 114.214 348.644 108.165 348.644 100.704C348.644 93.2423 342.596 87.1936 335.134 87.1936C327.673 87.1936 321.624 93.2423 321.624 100.704C321.624 108.165 327.673 114.214 335.134 114.214Z" fill="#F1F1F1"/>
<path d="M87.6505 105.401C93.6333 105.401 98.4832 100.551 98.4832 94.5681C98.4832 88.5854 93.6333 83.7354 87.6505 83.7354C81.6678 83.7354 76.8179 88.5854 76.8179 94.5681C76.8179 100.551 81.6678 105.401 87.6505 105.401Z" fill="#F1F1F1"/>
<path d="M105.486 112.685C109.683 112.685 113.085 109.283 113.085 105.086C113.085 100.889 109.683 97.4871 105.486 97.4871C101.289 97.4871 97.8867 100.889 97.8867 105.086C97.8867 109.283 101.289 112.685 105.486 112.685Z" fill="#F1F1F1"/>
<path d="M210.572 16.5612C215.145 16.5612 218.853 12.8538 218.853 8.2806C218.853 3.70735 215.145 0 210.572 0C205.999 0 202.292 3.70735 202.292 8.2806C202.292 12.8538 205.999 16.5612 210.572 16.5612Z" fill="#F1F1F1"/>
<path opacity="0.17" d="M161.225 182.744L161.965 177.03C161.965 177.03 189.576 179.046 185.262 185.826C180.947 192.605 170.47 193.222 170.47 193.222L161.225 182.744Z" fill="#2F2E41"/>
<path d="M182.066 157.901C183.648 158.075 185.171 158.597 186.527 159.43C187.883 160.262 189.038 161.385 189.909 162.717C190.702 163.932 191.242 165.295 191.496 166.724C191.749 168.153 191.711 169.618 191.384 171.032C191.057 172.446 190.447 173.78 189.592 174.952C188.737 176.125 187.653 177.112 186.406 177.855C185.949 178.125 185.472 178.36 184.979 178.557L168.008 230.469C167.516 231.494 166.827 232.411 165.979 233.168C165.132 233.925 164.143 234.507 163.07 234.88C161.997 235.254 160.861 235.412 159.727 235.345C158.592 235.278 157.483 234.987 156.461 234.49C155.439 233.993 154.526 233.298 153.774 232.447C153.021 231.595 152.445 230.603 152.077 229.528C151.709 228.453 151.558 227.316 151.631 226.182C151.704 225.048 152 223.94 152.503 222.921L170.552 171.585C170.06 169.887 169.995 168.093 170.362 166.363C170.728 164.634 171.516 163.021 172.654 161.668C173.793 160.315 175.247 159.263 176.889 158.606C178.53 157.949 180.309 157.707 182.066 157.901Z" fill="#FFB7B7"/>
<path d="M161.478 177.517C161.478 177.517 171.202 194.132 185.261 185.826L171.636 237.966H160.157L148.281 235.748L151.606 214.206L161.478 177.517Z" fill="#E5E5E5"/>
<path d="M230.914 188.873L222.858 177.813C222.858 177.813 226.73 166.341 241.743 170.536C241.743 170.536 251.297 191.921 230.914 188.873Z" fill="#E5E5E5"/>
<path opacity="0.17" d="M230.914 188.873L222.858 177.813C222.858 177.813 226.73 166.341 241.743 170.536C241.743 170.536 251.297 191.921 230.914 188.873Z" fill="#2F2E41"/>
<path d="M233.046 150.232C235.371 151.312 237.23 153.191 238.285 155.526C239.341 157.861 239.524 160.498 238.799 162.957L256.848 214.293C257.351 215.312 257.648 216.42 257.721 217.554C257.794 218.688 257.643 219.825 257.275 220.9C256.907 221.975 256.331 222.967 255.578 223.819C254.826 224.67 253.913 225.365 252.891 225.862C251.869 226.359 250.759 226.65 249.625 226.717C248.491 226.784 247.354 226.626 246.281 226.252C245.208 225.878 244.22 225.296 243.372 224.539C242.525 223.782 241.835 222.865 241.344 221.841L224.372 169.928C223.879 169.731 223.402 169.497 222.945 169.227C221.699 168.484 220.615 167.496 219.76 166.324C218.904 165.151 218.295 163.818 217.968 162.404C217.64 160.99 217.602 159.524 217.856 158.095C218.109 156.666 218.649 155.303 219.443 154.088C220.313 152.756 221.468 151.634 222.824 150.801C224.18 149.969 225.704 149.447 227.285 149.272C229.258 149.049 231.253 149.381 233.046 150.232Z" fill="#FFB7B7"/>
<path d="M222.858 177.813C222.858 177.813 236.15 185.878 241.743 170.536L260.473 219.852L254.907 229.585L254.102 229.652C250.782 229.929 247.445 229.396 244.376 228.098C241.307 226.801 238.6 224.778 236.485 222.203C232.173 216.952 229.237 210.708 227.943 204.037L222.858 177.813Z" fill="#E5E5E5"/>
</g>
<defs>
<clipPath id="clip0_319_155">
<rect width="400" height="369.651" fill="white"/>
</clipPath>
</defs>
</svg>
